<svg width="96" height="96" viewBox="0 0 96 96" fill="none" xmlns="http://www.w3.org/2000/svg">
<path d="M76 36C76 43.7586 72.8489 50.7765 67.7461 55.8518H67.6763H67.6011H67.526H67.4509H67.3758H67.3007H67.2256H67.1506H67.0755H67.0005H66.9255H66.8504H66.7754H66.7004H66.6255H66.5505H66.4755H66.4005H66.3256H66.2507H66.1757H66.1008H66.0259H65.951H65.8761H65.8012H65.7263H65.6514H65.5765H65.5016H65.4268H65.3519H65.2771H65.2022H65.1273H65.0525H64.9777H64.9028H64.828H64.7531H64.6783H64.6035H64.5286H64.4538H64.379H64.3042H64.2293H64.1545H64.0797H64.0049H63.93H63.8552H63.7804H63.7055H63.6307H63.5559H63.481H63.4062H63.3313H63.2565H63.1816H63.1068H63.0319H62.9571H62.8822H62.8073H62.7324H62.6575H62.5826H62.5077H62.4328H62.3579H62.283H62.2081H62.1331H62.0582H61.9832H61.9083H61.8333H61.7583H61.6833H61.6083H61.5333H61.4583H61.3833H61.3082H61.2332H61.1581H61.083H61.0079H60.9328H60.8577H60.7826H60.7074H60.6323H60.5571H60.4819H60.4067H60.3315H60.2563H60.181H60.1057H60.0305H59.9552H59.8798H59.8045H59.7292H59.6538H59.5784H59.503H59.4276H59.3521H59.2767H59.2012H59.1257H59.0502H58.9746H58.8991H58.8235H58.7479H58.6723H58.5966H58.521H58.4453H58.3695H58.2938H58.218H58.1423H58.0665H57.9906H57.9148H57.8389H57.763H57.687H57.6111H57.5351H57.4591H57.383H57.307H57.2309H57.1548H57.0786H57.0024H56.9262H56.85H56.7737H56.6974H56.6211H56.5447H56.4684H56.3919H56.3155H56.239H56.1625H56.086H56.0094H55.9328H55.8562H55.7795H55.7028H55.6261H55.5493H55.4725H55.3956H55.3188H55.2419H55.1649H55.0879H55.0109H54.9339H54.8568H54.7796H54.7025H54.6253H54.548H54.4708H54.3935H54.3161H54.2387H54.1613H54.0838H54.0063H53.9287H53.8511H53.7735H53.6958H53.6181H53.5404H53.4626H53.3847H53.3068H53.2289H53.1509H53.0729H52.9949H52.9168H52.8386H52.7604H52.6822H52.6039H52.5256H52.4472H52.3688H52.2904H52.2118H52.1333H52.0547H51.976H51.8973H51.8186H51.7398H51.6609H51.582H51.5031H51.4241H51.3451H51.266H51.1868H51.1076H51.0284H50.9491H50.8697H50.7903H50.7109H50.6314H50.5518H50.4722H50.3925H50.3128H50.233H50.1532H50.0733H49.9934H49.9134H49.8333H49.7532H49.6731H49.5928H49.5126H49.4322H49.3518H49.2714H49.1909H49.1103H49.0297H48.949H48.8683H48.7875H48.7066H48.6257H48.5447H48.4637H48.3826H48.3014H48.2202H48.1389H48.0575H47.9761H47.8947H47.8131H47.7315H47.6499H47.5681H47.4863H47.4045H47.3225H47.2406H47.1585H47.0764H46.9942H46.9119H46.8296H46.7472H46.6648H46.5823H46.4997H46.417H46.3343H46.2515H46.1686H46.0857H46.0027H45.9196H45.8365H45.7533H45.67H45.5866H45.5032H45.4197H45.3362H45.2525H45.1688H45.085H45.0011H44.9172H44.8332H44.7491H44.665H44.5807H44.4964H44.412H44.3276H44.243H44.1584H44.0738H43.989H43.9042H43.8192H43.7342H43.6492H43.564H43.4788H43.3935H43.3081H43.2226H43.1371H43.0514H42.9657H42.8799H42.7941H42.7081H42.6221H42.536H42.4498H42.3635H42.2771H42.1907H42.1042H42.0176H41.9309H41.8441H41.7572H41.6703H41.5832H41.4961H41.4089H41.3216H41.2342H41.1468H41.0592H40.9716H40.8838H40.796H40.7081H40.6201H40.5321H40.4439H40.3556H40.2673H40.1788H40.0903H40.0017H39.913H39.8242H39.7353H39.6463H39.5572H39.4681H39.3788H39.2895H39.2H39.1105H39.0208H38.9311H38.8413H38.7514H38.6614H38.5712H38.481H38.3907H38.3004H38.2099H38.1193H38.0286H37.9378H37.8469H37.7559H37.6649H37.5737H37.4824H37.391H37.2996H37.208H37.1163H37.0246H36.9327H36.8407H36.7486H36.6565H36.5642H36.4718H36.3793H36.2867H36.194H36.1012H36.0083H35.9153H35.8222H35.729H35.6357H35.5423H35.4488H35.3551H35.2614H35.1676H35.0736H34.9796H34.8854H34.7911H34.6967H34.6023H34.5077H34.413H34.3181H34.2232H34.1282H34.033H33.9378H33.8424H33.747H33.6514H33.5557H33.4599H33.364H33.2679H33.1718H33.0755H32.9792H32.8827H32.7861H32.6894H32.5925H32.4956H32.3985H32.3014H32.2041H32.1067H32.0092H31.9115H31.8138H31.7159H31.6179H31.5198H31.4216H31.3233H31.2248H31.1262H31.0275H30.9287H30.8298H30.7307H30.6315H30.5322H30.4328H30.3333H30.2336H30.1338H30.0339H29.9339H29.8338H29.7335H29.6331H29.5326H29.4319H29.3312H29.2303H29.1293H29.0281H28.9269H28.8255H28.7239H28.6223H28.5205H28.4186H28.3166H28.2539C23.1511 50.7765 20 43.7586 20 36C20 20.536 32.536 8 48 8C63.464 8 76 20.536 76 36Z" stroke="white" stroke-width="8"/>
<line x1="26.6666" y1="71.8518" x2="69.3333" y2="71.8518" stroke="white" stroke-width="8"/>
<line x1="41.3334" y1="87.8518" x2="54.6667" y2="87.8518" stroke="white" stroke-width="8" stroke-linecap="round"/>
</svg>
